<svg xmlns="http://www.w3.org/2000/svg" width="58.154" height="58.154" viewBox="0 0 58.154 58.154">
  <g id="ici-adhesives" transform="translate(-6 -5)">
    <circle id="Ellipse_23" data-name="Ellipse 23" cx="1.292" cy="1.292" r="1.292" transform="translate(51.554 44.416)" fill="#292929"/>
    <path id="Path_69" data-name="Path 69" d="M35.492,34.723h0a1.248,1.248,0,0,0,1.292-1.131,1.292,1.292,0,1,0-2.585,0C34.362,34.238,34.846,34.885,35.492,34.723Z" transform="translate(17.354 16.8)" fill="#292929"/>
    <circle id="Ellipse_24" data-name="Ellipse 24" cx="1.292" cy="1.292" r="1.292" transform="translate(46.708 21.316)" fill="#292929"/>
    <path id="Path_70" data-name="Path 70" d="M32.492,14.785A1.292,1.292,0,1,0,31.2,13.492C31.362,14.138,31.846,14.785,32.492,14.785Z" transform="translate(15.508 4.431)" fill="#292929"/>
    <path id="Path_71" data-name="Path 71" d="M32.492,20.423h0a1.248,1.248,0,0,0,1.292-1.131A1.39,1.39,0,0,0,32.492,18,1.274,1.274,0,0,0,31.2,19.292,1.145,1.145,0,0,0,32.492,20.423Z" transform="translate(15.508 8)" fill="#292929"/>
    <circle id="Ellipse_25" data-name="Ellipse 25" cx="1.292" cy="1.292" r="1.292" transform="translate(46.708 12.108)" fill="#292929"/>
    <circle id="Ellipse_26" data-name="Ellipse 26" cx="1.292" cy="1.292" r="1.292" transform="translate(51.554 39.893)" fill="#292929"/>
    <circle id="Ellipse_27" data-name="Ellipse 27" cx="1.292" cy="1.292" r="1.292" transform="translate(51.554 12.108)" fill="#292929"/>
    <circle id="Ellipse_28" data-name="Ellipse 28" cx="1.292" cy="1.292" r="1.292" transform="translate(51.554 21.316)" fill="#292929"/>
    <circle id="Ellipse_29" data-name="Ellipse 29" cx="1.292" cy="1.292" r="1.292" transform="translate(51.554 16.631)" fill="#292929"/>
    <circle id="Ellipse_30" data-name="Ellipse 30" cx="1.292" cy="1.292" r="1.292" transform="translate(51.554 35.208)" fill="#292929"/>
    <circle id="Ellipse_31" data-name="Ellipse 31" cx="1.292" cy="1.292" r="1.292" transform="translate(51.554 26)" fill="#292929"/>
    <circle id="Ellipse_32" data-name="Ellipse 32" cx="1.292" cy="1.292" r="1.292" transform="translate(51.554 30.523)" fill="#292929"/>
    <circle id="Ellipse_33" data-name="Ellipse 33" cx="1.292" cy="1.292" r="1.292" transform="translate(51.554 53.785)" fill="#292929"/>
    <circle id="Ellipse_34" data-name="Ellipse 34" cx="1.292" cy="1.292" r="1.292" transform="translate(27.485 53.785)" fill="#292929"/>
    <path id="Path_72" data-name="Path 72" d="M22.3,36.492h0a1.248,1.248,0,0,0,1.131,1.292,1.292,1.292,0,1,0,0-2.585A1.371,1.371,0,0,0,22.3,36.492Z" transform="translate(10.031 18.585)" fill="#292929"/>
    <circle id="Ellipse_35" data-name="Ellipse 35" cx="1.292" cy="1.292" r="1.292" transform="translate(37.016 53.785)" fill="#292929"/>
    <circle id="Ellipse_36" data-name="Ellipse 36" cx="1.292" cy="1.292" r="1.292" transform="translate(46.708 30.523)" fill="#292929"/>
    <circle id="Ellipse_37" data-name="Ellipse 37" cx="1.292" cy="1.292" r="1.292" transform="translate(41.862 53.785)" fill="#292929"/>
    <path id="Path_73" data-name="Path 73" d="M17.592,35.2h0A1.39,1.39,0,0,0,16.3,36.492a1.292,1.292,0,1,0,2.585,0A1.39,1.39,0,0,0,17.592,35.2Z" transform="translate(6.339 18.585)" fill="#292929"/>
    <path id="Path_74" data-name="Path 74" d="M14.592,35.2h0A1.39,1.39,0,0,0,13.3,36.492a1.292,1.292,0,0,0,2.585,0A1.39,1.39,0,0,0,14.592,35.2Z" transform="translate(4.492 18.585)" fill="#292929"/>
    <path id="Path_75" data-name="Path 75" d="M49.177,13v1.938h5.654V56.293H19.938V53.223H18v5.008H56.77V13Z" transform="translate(7.385 4.923)" fill="#292929"/>
    <circle id="Ellipse_38" data-name="Ellipse 38" cx="1.292" cy="1.292" r="1.292" transform="translate(46.708 39.893)" fill="#292929"/>
    <path id="Path_76" data-name="Path 76" d="M32.492,31.985a1.274,1.274,0,0,0,1.292-1.292A1.189,1.189,0,0,0,32.492,29.4,1.274,1.274,0,0,0,31.2,30.692C31.362,31.5,31.846,31.985,32.492,31.985Z" transform="translate(15.508 15.016)" fill="#292929"/>
    <circle id="Ellipse_39" data-name="Ellipse 39" cx="1.292" cy="1.292" r="1.292" transform="translate(46.708 35.208)" fill="#292929"/>
    <circle id="Ellipse_40" data-name="Ellipse 40" cx="1.292" cy="1.292" r="1.292" transform="translate(46.708 49.1)" fill="#292929"/>
    <circle id="Ellipse_41" data-name="Ellipse 41" cx="1.292" cy="1.292" r="1.292" transform="translate(46.708 53.785)" fill="#292929"/>
    <path id="Path_77" data-name="Path 77" d="M6,5V51.847H44.77V5ZM42.831,49.908H7.938V6.938H42.831Z" fill="#292929"/>
  </g>
</svg>
