<svg xmlns="http://www.w3.org/2000/svg" width="65.282" height="65.125" viewBox="0 0 65.282 65.125">
  <g id="ici-online-communication" transform="translate(-12.197 -9)">
    <path id="Path_78" data-name="Path 78" d="M47.237,38.454a1.5,1.5,0,0,1,.1-3.007A1.484,1.484,0,0,1,48.792,36.9a1.594,1.594,0,0,1-1.556,1.556m0,1.348a2.827,2.827,0,1,0-2.9-2.8,2.833,2.833,0,0,0,2.9,2.8ZM37.9,38.454A1.478,1.478,0,1,1,39.407,37a1.5,1.5,0,0,1-1.5,1.452m0,1.348A2.827,2.827,0,1,0,35,37a2.879,2.879,0,0,0,2.9,2.8ZM56.57,38.454a1.478,1.478,0,0,1,.052-2.956,1.484,1.484,0,0,1,1.452,1.452,1.5,1.5,0,0,1-1.5,1.5m0,1.3a2.827,2.827,0,1,0-2.9-2.8A2.833,2.833,0,0,0,56.57,39.75Z" transform="translate(-10.98 -12.084)" fill="#292929"/>
    <path id="Path_79" data-name="Path 79" d="M12.2,11.593v26.6a2.545,2.545,0,0,0,2.541,2.541H19.25l6.844,7.57V40.681H57.724a2.545,2.545,0,0,0,2.541-2.541v-26.6A2.545,2.545,0,0,0,57.724,9H14.687A2.482,2.482,0,0,0,12.2,11.593Zm1.4.052A1.262,1.262,0,0,1,14.843,10.4H57.62a1.262,1.262,0,0,1,1.244,1.244V38.088a1.262,1.262,0,0,1-1.244,1.244H24.9v5.548l-4.667-5.133-.363-.363h-5.03A1.262,1.262,0,0,1,13.6,38.14ZM53.42,56.755a1.5,1.5,0,1,1-.1,3.007,1.461,1.461,0,0,1-1.452-1.5,1.484,1.484,0,0,1,1.556-1.5m0-1.348a2.852,2.852,0,1,0,2.9,2.852A2.878,2.878,0,0,0,53.42,55.407Zm9.333,1.348A1.478,1.478,0,1,1,62.7,59.71a1.484,1.484,0,0,1-1.452-1.452,1.442,1.442,0,0,1,1.5-1.5h0m0-1.348a2.852,2.852,0,1,0,2.9,2.9A2.932,2.932,0,0,0,62.753,55.407ZM44.087,56.755a1.478,1.478,0,0,1-.052,2.956,1.484,1.484,0,0,1-1.452-1.452,1.442,1.442,0,0,1,1.5-1.5h0m0-1.348a2.852,2.852,0,1,0,2.9,2.852,2.878,2.878,0,0,0-2.9-2.852Z" transform="translate(0)" fill="#292929"/>
    <path id="Path_80" data-name="Path 80" d="M93.37,95.511v-26.6a2.545,2.545,0,0,0-2.541-2.541H86.318l-6.9-7.57v7.622H47.741A2.545,2.545,0,0,0,45.2,68.963v26.6A2.545,2.545,0,0,0,47.741,98.1H90.777A2.634,2.634,0,0,0,93.37,95.511Zm-1.4-.1a1.262,1.262,0,0,1-1.244,1.244H47.948A1.262,1.262,0,0,1,46.7,95.407V68.963a1.262,1.262,0,0,1,1.244-1.244H80.666V62.17L85.333,67.3l.363.415h5.03a1.262,1.262,0,0,1,1.244,1.244V95.407Z" transform="translate(-15.891 -23.978)" fill="#292929"/>
  </g>
</svg>
