<svg xmlns="http://www.w3.org/2000/svg" xmlns:xlink="http://www.w3.org/1999/xlink" width="18.165" height="24.679" viewBox="0 0 18.165 24.679">
  <defs>
    <clipPath id="clip-path">
      <rect id="Rectangle_139" data-name="Rectangle 139" width="18.165" height="24.679" fill="#fff"/>
    </clipPath>
  </defs>
  <g id="Group_194" data-name="Group 194" clip-path="url(#clip-path)">
    <path id="Path_87" data-name="Path 87" d="M18.165,9.1A9.082,9.082,0,1,0,2.02,14.792V24.2a.458.458,0,0,0,.609.431l6.453-2.217,6.453,2.24h0a.458.458,0,0,0,.609-.431v-9.43A9.03,9.03,0,0,0,18.164,9.1ZM9.082.933A8.153,8.153,0,0,1,15.009,14.7c-.064.069-.124.137-.188.2s-.252.234-.38.343l-.247.211c-.124.1-.256.2-.389.289l-.3.2q-.188.124-.385.234l-.357.192c-.124.064-.247.124-.376.179s-.279.114-.426.169-.234.092-.348.128-.33.1-.5.142l-.312.082c-.2.041-.394.069-.591.1l-.256.041h0a7.916,7.916,0,0,1-1.736,0l-.257-.041c-.2-.027-.394-.055-.591-.1l-.311-.082c-.169-.041-.335-.087-.5-.142s-.234-.082-.353-.128-.284-.11-.426-.169-.252-.119-.376-.179l-.357-.192q-.2-.115-.385-.234l-.3-.206q-.2-.138-.385-.289l-.252-.215c-.128-.11-.257-.224-.376-.344s-.128-.137-.2-.206h0A8.152,8.152,0,0,1,9.082.933Zm6.146,22.621-6-2.057a.458.458,0,0,0-.3,0l-6,2.057V15.768c.092.082.188.156.279.234l.174.147c.165.133.335.257.5.376l.2.137c.169.11.339.215.513.312l.243.137c.165.087.335.169.508.243l.288.128c.165.069.33.124.495.183l.33.114c.165.05.33.087.5.128s.234.059.353.082.366.059.55.082c.105,0,.211.037.321.046s.288,0,.431.023v1.525a.458.458,0,0,0,.916,0V18.154a2.677,2.677,0,0,0,.431-.023c.142-.023.211-.032.321-.046.183-.023.371-.05.55-.082s.234-.055.353-.082.334-.078.5-.128l.33-.11c.165-.055.335-.114.495-.183l.288-.128c.174-.078.344-.156.508-.247l.238-.133c.174-.1.348-.2.518-.311l.2-.137c.174-.119.344-.247.5-.38l.169-.142c.092-.078.188-.151.279-.234Z" transform="translate(0 0)" fill="#fff"/>
    <path id="Path_88" data-name="Path 88" d="M49.234,64.936a.465.465,0,0,0,.65,0l6.5-6.49a.458.458,0,0,0,0-.65l-1.626-1.621a.458.458,0,0,0-.646,0l-4.53,4.534-1.3-1.374a.454.454,0,0,0-.669,0l-1.631,1.713a.458.458,0,0,0,0,.637ZM47.947,60.3l1.287,1.374h0a.458.458,0,0,0,.659,0l4.539-4.543.976.976-5.849,5.862-2.6-2.606Z" transform="translate(-42.107 -51.458)" fill="#fff"/>
  </g>
</svg>
