<svg id="Group_110" data-name="Group 110" xmlns="http://www.w3.org/2000/svg" xmlns:xlink="http://www.w3.org/1999/xlink" width="51.484" height="69.946" viewBox="0 0 51.484 69.946">
  <defs>
    <clipPath id="clip-path">
      <rect id="Rectangle_74" data-name="Rectangle 74" width="51.484" height="69.946" fill="#292929" stroke="#fff" stroke-linejoin="round" stroke-width="0.5"/>
    </clipPath>
  </defs>
  <g id="Group_103" data-name="Group 103" clip-path="url(#clip-path)">
    <path id="Path_40" data-name="Path 40" d="M51.484,25.79A25.742,25.742,0,1,0,5.725,41.925V68.587a1.3,1.3,0,0,0,1.727,1.221l18.29-6.283,18.29,6.348h0a1.3,1.3,0,0,0,1.727-1.221V41.925A25.6,25.6,0,0,0,51.483,25.79ZM25.742,2.645a23.107,23.107,0,0,1,16.8,39.008c-.182.195-.35.389-.532.571s-.713.662-1.077.973l-.7.6c-.35.285-.727.558-1.1.818l-.844.571q-.532.35-1.09.662l-1.012.545c-.35.182-.7.35-1.065.506s-.791.324-1.207.48-.662.26-.987.363-.934.273-1.415.4l-.883.234c-.558.117-1.116.195-1.674.273l-.727.117v0a22.435,22.435,0,0,1-4.92,0l-.727-.117c-.558-.078-1.117-.156-1.674-.273l-.883-.234c-.48-.117-.948-.246-1.415-.4s-.662-.234-1-.363-.805-.312-1.207-.48-.714-.338-1.065-.506l-1.012-.545q-.558-.325-1.09-.662l-.857-.584q-.565-.39-1.09-.818l-.713-.61c-.363-.312-.727-.636-1.065-.974s-.363-.389-.558-.584v0a23.106,23.106,0,0,1,16.8-38.969ZM43.162,66.76,26.17,60.931a1.3,1.3,0,0,0-.857,0L8.321,66.76V44.692c.26.234.532.441.791.662l.494.416c.467.377.948.727,1.428,1.065l.571.389c.48.312.961.61,1.454.883l.688.389c.467.246.948.48,1.441.688l.818.363c.467.195.934.35,1.4.519l.934.324c.467.143.934.246,1.415.363s.662.168,1,.233,1.039.169,1.557.234c.3,0,.6.1.909.13s.818,0,1.22.065v4.324a1.3,1.3,0,0,0,2.6,0V51.455a7.589,7.589,0,0,0,1.22-.065c.4-.065.6-.091.909-.13.519-.065,1.051-.143,1.558-.234s.662-.156,1-.233.948-.221,1.415-.363l.934-.312c.467-.156.948-.324,1.4-.519l.818-.363c.494-.221.974-.441,1.441-.7l.675-.377c.494-.285.987-.571,1.467-.883l.571-.389c.494-.338.974-.7,1.428-1.077l.48-.4c.26-.221.532-.428.791-.662Z" transform="translate(0 0)" fill="#292929" stroke="#fff" stroke-linejoin="round" stroke-width="0.5"/>
    <path id="Path_41" data-name="Path 41" d="M55.427,81.252a1.317,1.317,0,0,0,1.843,0L75.69,62.857a1.3,1.3,0,0,0,0-1.844l-4.608-4.6a1.3,1.3,0,0,0-1.831,0L56.413,69.27l-3.674-3.895a1.288,1.288,0,0,0-1.9,0L46.222,70.23a1.3,1.3,0,0,0,0,1.8ZM51.779,68.1,55.426,72h0A1.3,1.3,0,0,0,57.3,72L70.16,59.119l2.765,2.765L56.347,78.5l-7.373-7.386Z" transform="translate(-35.228 -43.05)" fill="#292929" stroke="#fff" stroke-linejoin="round" stroke-width="0.5"/>
  </g>
</svg>
