<svg id="Group_195" data-name="Group 195" xmlns="http://www.w3.org/2000/svg" xmlns:xlink="http://www.w3.org/1999/xlink" width="19.289" height="22.755" viewBox="0 0 19.289 22.755">
  <defs>
    <clipPath id="clip-path">
      <rect id="Rectangle_75" data-name="Rectangle 75" width="19.289" height="22.755" fill="#fff"/>
    </clipPath>
  </defs>
  <g id="Group_105" data-name="Group 105" clip-path="url(#clip-path)">
    <path id="Path_42" data-name="Path 42" d="M19.232,5.384a.412.412,0,0,0-.346-.371C15.47,4.474,13.461,3.374,9.924.11a.411.411,0,0,0-.558,0C5.83,3.374,3.821,4.474.4,5.013a.412.412,0,0,0-.346.371A19.04,19.04,0,0,0,2.135,15.619a16.687,16.687,0,0,0,3.073,4.22,13.514,13.514,0,0,0,4.278,2.884.413.413,0,0,0,.318,0,13.512,13.512,0,0,0,4.278-2.884,16.687,16.687,0,0,0,3.073-4.22A19.04,19.04,0,0,0,19.232,5.384ZM9.645,21.9C4.129,19.49.4,12.634.853,5.772c3.324-.572,5.393-1.7,8.792-4.8,3.4,3.1,5.468,4.231,8.792,4.8.455,6.862-3.276,13.717-8.792,16.124" transform="translate(0 0)" fill="#fff"/>
  </g>
</svg>
