<svg id="Group_195" data-name="Group 195" xmlns="http://www.w3.org/2000/svg" xmlns:xlink="http://www.w3.org/1999/xlink" width="40.107" height="47.313" viewBox="0 0 40.107 47.313">
  <defs>
    <clipPath id="clip-path">
      <rect id="Rectangle_75" data-name="Rectangle 75" width="40.107" height="47.313" fill="#fff"/>
    </clipPath>
  </defs>
  <g id="Group_105" data-name="Group 105" clip-path="url(#clip-path)">
    <path id="Path_42" data-name="Path 42" d="M39.989,11.195a.856.856,0,0,0-.719-.772C32.166,9.3,27.988,7.014,20.634.228a.854.854,0,0,0-1.16,0C12.122,7.014,7.945,9.3.838,10.422a.856.856,0,0,0-.719.772,39.589,39.589,0,0,0,4.32,21.281,34.7,34.7,0,0,0,6.39,8.775,28.1,28.1,0,0,0,8.894,6,.859.859,0,0,0,.66,0,28.1,28.1,0,0,0,8.894-6,34.7,34.7,0,0,0,6.39-8.775,39.589,39.589,0,0,0,4.32-21.281ZM20.054,45.528C8.585,40.523.827,26.269,1.773,12c6.912-1.19,11.212-3.543,18.281-9.987,7.068,6.444,11.369,8.8,18.281,9.987.946,14.267-6.812,28.521-18.281,33.526" transform="translate(0 0)" fill="#fff"/>
  </g>
</svg>
